G04 #@! TF.GenerationSoftware,KiCad,Pcbnew,(7.0.0-0)*
G04 #@! TF.CreationDate,2023-03-08T03:56:24+09:00*
G04 #@! TF.ProjectId,KiCad7xx_UnoTypeC,4b694361-6437-4787-985f-556e6f547970,rev?*
G04 #@! TF.SameCoordinates,Original*
G04 #@! TF.FileFunction,Soldermask,Bot*
G04 #@! TF.FilePolarity,Negative*
%FSLAX46Y46*%
G04 Gerber Fmt 4.6, Leading zero omitted, Abs format (unit mm)*
G04 Created by KiCad (PCBNEW (7.0.0-0)) date 2023-03-08 03:56:24*
%MOMM*%
%LPD*%
G01*
G04 APERTURE LIST*
G04 Aperture macros list*
%AMRoundRect*
0 Rectangle with rounded corners*
0 $1 Rounding radius*
0 $2 $3 $4 $5 $6 $7 $8 $9 X,Y pos of 4 corners*
0 Add a 4 corners polygon primitive as box body*
4,1,4,$2,$3,$4,$5,$6,$7,$8,$9,$2,$3,0*
0 Add four circle primitives for the rounded corners*
1,1,$1+$1,$2,$3*
1,1,$1+$1,$4,$5*
1,1,$1+$1,$6,$7*
1,1,$1+$1,$8,$9*
0 Add four rect primitives between the rounded corners*
20,1,$1+$1,$2,$3,$4,$5,0*
20,1,$1+$1,$4,$5,$6,$7,0*
20,1,$1+$1,$6,$7,$8,$9,0*
20,1,$1+$1,$8,$9,$2,$3,0*%
%AMFreePoly0*
4,1,17,0.864348,2.035921,2.035921,0.864348,2.050800,0.828427,2.050800,-0.828427,2.035921,-0.864348,0.864348,-2.035921,0.828427,-2.050800,-0.828427,-2.050800,-0.864348,-2.035921,-2.035921,-0.864348,-2.050800,-0.828427,-2.050800,0.828427,-2.035921,0.864348,-0.864348,2.035921,-0.828427,2.050800,0.828427,2.050800,0.864348,2.035921,0.864348,2.035921,$1*%
%AMFreePoly1*
4,1,17,0.356937,0.810921,0.810921,0.356937,0.825800,0.321016,0.825800,-0.321016,0.810921,-0.356937,0.356937,-0.810921,0.321016,-0.825800,-0.321016,-0.825800,-0.356937,-0.810921,-0.810921,-0.356937,-0.825800,-0.321016,-0.825800,0.321016,-0.810921,0.356937,-0.356937,0.810921,-0.321016,0.825800,0.321016,0.825800,0.356937,0.810921,0.356937,0.810921,$1*%
%AMFreePoly2*
4,1,17,0.383115,0.874121,0.874121,0.383115,0.889000,0.347194,0.889000,-0.347194,0.874121,-0.383115,0.383115,-0.874121,0.347194,-0.889000,-0.347194,-0.889000,-0.383115,-0.874121,-0.874121,-0.383115,-0.889000,-0.347194,-0.889000,0.347194,-0.874121,0.383115,-0.383115,0.874121,-0.347194,0.889000,0.347194,0.889000,0.383115,0.874121,0.383115,0.874121,$1*%
G04 Aperture macros list end*
%ADD10RoundRect,0.450800X0.000000X0.000000X0.000000X0.000000X0.000000X0.000000X0.000000X0.000000X0*%
%ADD11O,1.524000X2.235200*%
%ADD12FreePoly0,180.000000*%
%ADD13FreePoly0,90.000000*%
%ADD14C,2.051600*%
%ADD15FreePoly1,270.000000*%
%ADD16C,3.200000*%
%ADD17FreePoly2,90.000000*%
%ADD18FreePoly1,180.000000*%
%ADD19C,0.650000*%
%ADD20O,2.100000X1.000000*%
%ADD21O,1.600000X1.000000*%
%ADD22RoundRect,0.109220X0.525780X0.741680X-0.525780X0.741680X-0.525780X-0.741680X0.525780X-0.741680X0*%
%ADD23C,1.219200*%
%ADD24C,0.605000*%
%ADD25C,0.600000*%
G04 APERTURE END LIST*
G36*
X125717300Y-91948000D02*
G01*
X125564900Y-91948000D01*
X125564900Y-90119200D01*
X125717300Y-90119200D01*
X125717300Y-91948000D01*
G37*
D10*
X165011100Y-129133600D03*
D11*
X177076099Y-111480599D03*
X174536099Y-111480599D03*
X171996099Y-111480599D03*
X169456099Y-111480599D03*
X166916099Y-111480599D03*
X164376099Y-111480599D03*
X161836099Y-111480599D03*
X159296099Y-111480599D03*
X156756099Y-111480599D03*
X154216099Y-111480599D03*
X151676099Y-111480599D03*
X149136099Y-111480599D03*
X146596099Y-111480599D03*
X144056099Y-111480599D03*
X144056099Y-119100599D03*
X146596099Y-119100599D03*
X149136099Y-119100599D03*
X151676099Y-119100599D03*
X154216099Y-119100599D03*
X156756099Y-119100599D03*
X159296099Y-119100599D03*
X161836099Y-119100599D03*
X164376099Y-119100599D03*
X166916099Y-119100599D03*
X169456099Y-119100599D03*
X171996099Y-119100599D03*
X174536099Y-119100599D03*
X177076099Y-119100599D03*
X165011099Y-129133599D03*
X167551099Y-129133599D03*
X170091099Y-129133599D03*
X172631099Y-129133599D03*
X175171099Y-129133599D03*
X177711099Y-129133599D03*
D10*
X145580100Y-95986600D03*
X148247100Y-80873600D03*
D11*
X142151099Y-129133599D03*
X144691099Y-129133599D03*
X147231099Y-129133599D03*
X149771099Y-129133599D03*
X152311099Y-129133599D03*
X154851099Y-129133599D03*
X157391099Y-129133599D03*
X159931099Y-129133599D03*
D10*
X132499100Y-84175600D03*
X159931100Y-80873600D03*
D12*
X122897900Y-128371600D03*
D13*
X125895100Y-123367800D03*
X119900700Y-123367800D03*
D14*
X123659900Y-128371600D03*
X122135900Y-128371600D03*
X119900700Y-124129800D03*
X119900700Y-122605800D03*
X125895100Y-124129800D03*
X125895100Y-122605800D03*
D15*
X177838100Y-101193600D03*
X180378100Y-101193600D03*
X177838100Y-103733600D03*
X180378100Y-103733600D03*
X177838100Y-106273600D03*
X180378100Y-106273600D03*
D10*
X140119100Y-101828600D03*
X144183100Y-108305600D03*
X152311100Y-129133600D03*
X162471100Y-80873600D03*
X132499100Y-86715600D03*
X153327100Y-80873600D03*
X165011100Y-80873600D03*
X149771100Y-129133600D03*
X154216100Y-111480600D03*
X129197100Y-89763600D03*
D16*
X129463800Y-80899000D03*
D11*
X155867099Y-80873599D03*
X153327099Y-80873599D03*
X150787099Y-80873599D03*
X148247099Y-80873599D03*
X145707099Y-80873599D03*
X143167099Y-80873599D03*
X140627099Y-80873599D03*
X138087099Y-80873599D03*
X135547099Y-80873599D03*
X133007099Y-80873599D03*
D16*
X129463800Y-80899000D03*
D10*
X129959100Y-84175600D03*
D16*
X128193800Y-129159000D03*
D10*
X139738100Y-88493600D03*
X170091100Y-80873600D03*
X145707100Y-80873600D03*
X135039100Y-89255600D03*
X166547800Y-97790000D03*
D17*
X135039100Y-91795600D03*
X132499100Y-91795600D03*
X135039100Y-89255600D03*
X132499100Y-89255600D03*
D10*
X133007100Y-80873600D03*
X167551100Y-80873600D03*
X177711100Y-129133600D03*
D11*
X177711099Y-80873599D03*
X175171099Y-80873599D03*
X172631099Y-80873599D03*
X170091099Y-80873599D03*
X167551099Y-80873599D03*
X165011099Y-80873599D03*
X162471099Y-80873599D03*
X159931099Y-80873599D03*
D10*
X180378100Y-101193600D03*
X138087100Y-80873600D03*
X170853100Y-96621600D03*
X134137400Y-103632000D03*
X132499100Y-89255600D03*
X135547100Y-80873600D03*
D18*
X135039100Y-84175600D03*
X135039100Y-86715600D03*
X132499100Y-84175600D03*
X132499100Y-86715600D03*
X129959100Y-84175600D03*
X129959100Y-86715600D03*
D10*
X175171100Y-80873600D03*
X159931100Y-129133600D03*
X155867100Y-80873600D03*
X172631100Y-129133600D03*
X157391100Y-129133600D03*
X167551100Y-129133600D03*
D16*
X180263800Y-124079000D03*
D10*
X170091100Y-129133600D03*
X140627100Y-80873600D03*
X143167100Y-80873600D03*
X165369800Y-99907800D03*
X132156200Y-103708200D03*
X132499100Y-91795600D03*
X133134100Y-110591600D03*
D16*
X180263800Y-96139000D03*
D10*
X127419100Y-123418600D03*
X126276100Y-110210600D03*
X135039100Y-91795600D03*
D19*
X120912000Y-90556600D03*
X120912000Y-96336600D03*
D20*
X121441999Y-89126599D03*
D21*
X117261999Y-89126599D03*
D20*
X121441999Y-97766599D03*
D21*
X117261999Y-97766599D03*
D10*
X145580100Y-92938600D03*
X147231100Y-129133600D03*
X177711100Y-80873600D03*
X135039100Y-84175600D03*
X150787100Y-80873600D03*
X172631100Y-80873600D03*
X156756100Y-111480600D03*
X175171100Y-129133600D03*
D16*
X128193800Y-129159000D03*
D22*
X126403100Y-91033600D03*
X124879100Y-91033600D03*
D23*
X119291100Y-117068600D03*
X121196100Y-107543600D03*
X121196100Y-102844600D03*
X131102100Y-119989600D03*
X116751100Y-118338600D03*
X116751100Y-114274600D03*
X139103100Y-103987600D03*
X116751100Y-110083600D03*
X119291100Y-111353600D03*
X123101100Y-118338600D03*
X121831100Y-111988600D03*
X139230100Y-91033600D03*
X123101100Y-110083600D03*
X121831100Y-116433600D03*
X126873000Y-100253300D03*
D24*
X117881400Y-93624400D03*
D23*
X181444900Y-113969800D03*
X144589500Y-94030800D03*
X178879500Y-91135200D03*
X144310100Y-100177600D03*
X141389100Y-117449600D03*
X157543500Y-100152200D03*
X165646100Y-110083600D03*
X137223500Y-109855000D03*
X130873500Y-124790200D03*
X144843500Y-97358200D03*
X162471100Y-129133600D03*
X168821100Y-82524600D03*
X117602000Y-100538800D03*
X125641100Y-118973600D03*
X133134100Y-105511600D03*
X135801100Y-128854200D03*
X173647100Y-103733600D03*
X143421100Y-125450600D03*
X133159500Y-97967800D03*
X124625100Y-81762600D03*
X128308100Y-114528600D03*
X155384500Y-113741200D03*
X178879500Y-84277200D03*
X126276100Y-106908600D03*
X161353500Y-102438200D03*
X157899100Y-80873600D03*
X136182100Y-120116600D03*
X181419500Y-120980200D03*
X163042600Y-105956100D03*
X173520100Y-113385600D03*
X147104100Y-100431600D03*
X161264600Y-106083100D03*
X176060100Y-114401600D03*
X146088100Y-101574600D03*
X145326100Y-121132600D03*
X139738100Y-112369600D03*
X139484100Y-82524600D03*
X140119100Y-101828600D03*
X139357100Y-94081600D03*
X144437100Y-102336600D03*
X173647100Y-106908600D03*
X123101100Y-84012600D03*
X129197100Y-89763600D03*
D25*
X123723400Y-97104200D03*
X119640350Y-94354650D03*
X124891800Y-89966800D03*
D23*
X162458400Y-123926600D03*
X142024100Y-123672600D03*
X140042900Y-107137200D03*
X136817100Y-85064600D03*
D24*
X118059200Y-90347800D03*
D25*
X116760226Y-96327321D03*
X120345200Y-91389200D03*
D23*
X151930100Y-115290600D03*
X141135100Y-110210600D03*
X150533100Y-103352600D03*
X136436100Y-90652600D03*
X146596100Y-106781600D03*
X147739100Y-105638600D03*
X175425100Y-98780600D03*
X170548300Y-100355400D03*
D25*
X123393200Y-86817200D03*
D24*
X123738900Y-91567000D03*
X120904000Y-93091000D03*
X120929400Y-94054536D03*
X123926600Y-94809000D03*
X124282200Y-93294200D03*
D25*
X122800412Y-99089500D03*
D24*
X124739400Y-97167200D03*
X124410318Y-92445311D03*
D23*
X139738100Y-88493600D03*
X170853100Y-96621600D03*
D25*
X132156200Y-103733600D03*
X134137400Y-103606600D03*
D23*
X144183100Y-108305600D03*
X145681700Y-92938600D03*
X145681700Y-95986600D03*
X133134100Y-110591600D03*
X145072100Y-90525600D03*
X166547800Y-97790000D03*
X165369800Y-99907800D03*
X126276100Y-110210600D03*
X136563100Y-113258600D03*
M02*
