M48
; DRILL file {KiCad (7.0.0-0)} date 
; FORMAT={-:-/ absolute / metric / decimal}
; #@! TF.CreationDate,2023-03-08T03:56:27+09:00
; #@! TF.GenerationSoftware,Kicad,Pcbnew,(7.0.0-0)
; #@! TF.FileFunction,MixedPlating,1,2
FMAT,2
METRIC
; #@! TA.AperFunction,Plated,PTH,ViaDrill
T1C0.300
; #@! TA.AperFunction,Plated,PTH,ComponentDrill
T2C0.600
; #@! TA.AperFunction,Plated,PTH,ViaDrill
T3C0.610
; #@! TA.AperFunction,Plated,PTH,ComponentDrill
T4C0.850
; #@! TA.AperFunction,Plated,PTH,ComponentDrill
T5C0.950
; #@! TA.AperFunction,Plated,PTH,ComponentDrill
T6C1.300
; #@! TA.AperFunction,NonPlated,NPTH,ComponentDrill
T7C0.650
; #@! TA.AperFunction,NonPlated,NPTH,ComponentDrill
T8C3.200
%
G90
G05
T1
X116.76Y-96.327
X117.881Y-93.624
X118.059Y-90.348
X119.64Y-94.355
X120.345Y-91.389
X120.904Y-93.091
X120.929Y-94.055
X122.8Y-99.09
X123.393Y-86.817
X123.723Y-97.104
X123.739Y-91.567
X123.927Y-94.809
X124.282Y-93.294
X124.41Y-92.445
X124.739Y-97.167
X124.892Y-89.967
X132.156Y-103.734
X134.137Y-103.607
T3
X116.751Y-110.084
X116.751Y-114.275
X116.751Y-118.339
X117.602Y-100.539
X119.291Y-111.354
X119.291Y-117.069
X121.196Y-102.845
X121.196Y-107.544
X121.831Y-111.989
X121.831Y-116.434
X123.101Y-84.013
X123.101Y-110.084
X123.101Y-118.339
X124.625Y-81.763
X125.641Y-118.974
X126.276Y-106.909
X126.276Y-110.211
X126.873Y-100.253
X128.308Y-114.529
X129.197Y-89.764
X130.874Y-124.79
X131.102Y-119.99
X133.134Y-105.512
X133.134Y-110.592
X133.159Y-97.968
X135.801Y-128.854
X136.182Y-120.117
X136.436Y-90.653
X136.563Y-113.259
X136.817Y-85.065
X137.224Y-109.855
X139.103Y-103.988
X139.23Y-91.034
X139.357Y-94.082
X139.484Y-82.525
X139.738Y-88.494
X139.738Y-112.37
X140.043Y-107.137
X140.119Y-101.829
X141.135Y-110.211
X141.389Y-117.45
X142.024Y-123.673
X143.421Y-125.451
X144.183Y-108.306
X144.31Y-100.178
X144.437Y-102.337
X144.589Y-94.031
X144.844Y-97.358
X145.072Y-90.526
X145.326Y-121.133
X145.682Y-92.939
X145.682Y-95.987
X146.088Y-101.575
X146.596Y-106.782
X147.104Y-100.432
X147.739Y-105.639
X150.533Y-103.353
X151.93Y-115.291
X155.385Y-113.741
X157.543Y-100.152
X157.899Y-80.874
X161.265Y-106.083
X161.353Y-102.438
X162.458Y-123.927
X162.471Y-129.134
X163.043Y-105.956
X165.37Y-99.908
X165.646Y-110.084
X166.548Y-97.79
X168.821Y-82.525
X170.548Y-100.355
X170.853Y-96.622
X173.52Y-113.386
X173.647Y-103.734
X173.647Y-106.909
X175.425Y-98.781
X176.06Y-114.402
X178.879Y-84.277
X178.879Y-91.135
X181.419Y-120.98
X181.445Y-113.97
T4
X133.007Y-80.874
X135.547Y-80.874
X138.087Y-80.874
X140.627Y-80.874
X142.151Y-129.134
X143.167Y-80.874
X144.056Y-111.481
X144.056Y-119.101
X144.691Y-129.134
X145.707Y-80.874
X146.596Y-111.481
X146.596Y-119.101
X147.231Y-129.134
X148.247Y-80.874
X149.136Y-111.481
X149.136Y-119.101
X149.771Y-129.134
X150.787Y-80.874
X151.676Y-111.481
X151.676Y-119.101
X152.311Y-129.134
X153.327Y-80.874
X154.216Y-111.481
X154.216Y-119.101
X154.851Y-129.134
X155.867Y-80.874
X156.756Y-111.481
X156.756Y-119.101
X157.391Y-129.134
X159.296Y-111.481
X159.296Y-119.101
X159.931Y-80.874
X159.931Y-129.134
X161.836Y-111.481
X161.836Y-119.101
X162.471Y-80.874
X164.376Y-111.481
X164.376Y-119.101
X165.011Y-80.874
X165.011Y-129.134
X166.916Y-111.481
X166.916Y-119.101
X167.551Y-80.874
X167.551Y-129.134
X169.456Y-111.481
X169.456Y-119.101
X170.091Y-80.874
X170.091Y-129.134
X171.996Y-111.481
X171.996Y-119.101
X172.631Y-80.874
X172.631Y-129.134
X174.536Y-111.481
X174.536Y-119.101
X175.171Y-80.874
X175.171Y-129.134
X177.076Y-111.481
X177.076Y-119.101
X177.711Y-80.874
X177.711Y-129.134
T5
X129.959Y-84.176
X129.959Y-86.716
X132.499Y-84.176
X132.499Y-86.716
X132.499Y-89.256
X132.499Y-91.796
X135.039Y-84.176
X135.039Y-86.716
X135.039Y-89.256
X135.039Y-91.796
X177.838Y-101.194
X177.838Y-103.734
X177.838Y-106.274
X180.378Y-101.194
X180.378Y-103.734
X180.378Y-106.274
T6
X119.901Y-122.606
X119.901Y-123.368
X119.901Y-124.13
X122.136Y-128.372
X122.898Y-128.372
X123.66Y-128.372
X125.895Y-122.606
X125.895Y-123.368
X125.895Y-124.13
T7
X120.912Y-90.557
X120.912Y-96.337
T8
X128.194Y-129.159
X128.194Y-129.159
X129.464Y-80.899
X129.464Y-80.899
X180.264Y-96.139
X180.264Y-124.079
T2
G00X117.562Y-89.127
M15
G01X116.962Y-89.127
M16
G05
G00X117.562Y-97.767
M15
G01X116.962Y-97.767
M16
G05
G00X121.992Y-89.127
M15
G01X120.892Y-89.127
M16
G05
G00X121.992Y-97.767
M15
G01X120.892Y-97.767
M16
G05
T0
M30
