G04 #@! TF.GenerationSoftware,KiCad,Pcbnew,(7.0.0-0)*
G04 #@! TF.CreationDate,2023-03-10T16:25:41+09:00*
G04 #@! TF.ProjectId,KiCad7xx_UnoTypeC_SMD,4b694361-6437-4787-985f-556e6f547970,rev?*
G04 #@! TF.SameCoordinates,Original*
G04 #@! TF.FileFunction,Soldermask,Bot*
G04 #@! TF.FilePolarity,Negative*
%FSLAX46Y46*%
G04 Gerber Fmt 4.6, Leading zero omitted, Abs format (unit mm)*
G04 Created by KiCad (PCBNEW (7.0.0-0)) date 2023-03-10 16:25:41*
%MOMM*%
%LPD*%
G01*
G04 APERTURE LIST*
G04 Aperture macros list*
%AMRoundRect*
0 Rectangle with rounded corners*
0 $1 Rounding radius*
0 $2 $3 $4 $5 $6 $7 $8 $9 X,Y pos of 4 corners*
0 Add a 4 corners polygon primitive as box body*
4,1,4,$2,$3,$4,$5,$6,$7,$8,$9,$2,$3,0*
0 Add four circle primitives for the rounded corners*
1,1,$1+$1,$2,$3*
1,1,$1+$1,$4,$5*
1,1,$1+$1,$6,$7*
1,1,$1+$1,$8,$9*
0 Add four rect primitives between the rounded corners*
20,1,$1+$1,$2,$3,$4,$5,0*
20,1,$1+$1,$4,$5,$6,$7,0*
20,1,$1+$1,$6,$7,$8,$9,0*
20,1,$1+$1,$8,$9,$2,$3,0*%
%AMFreePoly0*
4,1,17,0.864348,2.035921,2.035921,0.864348,2.050800,0.828427,2.050800,-0.828427,2.035921,-0.864348,0.864348,-2.035921,0.828427,-2.050800,-0.828427,-2.050800,-0.864348,-2.035921,-2.035921,-0.864348,-2.050800,-0.828427,-2.050800,0.828427,-2.035921,0.864348,-0.864348,2.035921,-0.828427,2.050800,0.828427,2.050800,0.864348,2.035921,0.864348,2.035921,$1*%
%AMFreePoly1*
4,1,17,0.356937,0.810921,0.810921,0.356937,0.825800,0.321016,0.825800,-0.321016,0.810921,-0.356937,0.356937,-0.810921,0.321016,-0.825800,-0.321016,-0.825800,-0.356937,-0.810921,-0.810921,-0.356937,-0.825800,-0.321016,-0.825800,0.321016,-0.810921,0.356937,-0.356937,0.810921,-0.321016,0.825800,0.321016,0.825800,0.356937,0.810921,0.356937,0.810921,$1*%
%AMFreePoly2*
4,1,17,0.383115,0.874121,0.874121,0.383115,0.889000,0.347194,0.889000,-0.347194,0.874121,-0.383115,0.383115,-0.874121,0.347194,-0.889000,-0.347194,-0.889000,-0.383115,-0.874121,-0.874121,-0.383115,-0.889000,-0.347194,-0.889000,0.347194,-0.874121,0.383115,-0.383115,0.874121,-0.347194,0.889000,0.347194,0.889000,0.383115,0.874121,0.383115,0.874121,$1*%
G04 Aperture macros list end*
%ADD10RoundRect,0.450800X0.000000X0.000000X0.000000X0.000000X0.000000X0.000000X0.000000X0.000000X0*%
%ADD11C,0.650000*%
%ADD12O,2.100000X1.000000*%
%ADD13O,1.600000X1.000000*%
%ADD14O,1.371600X2.006600*%
%ADD15FreePoly0,90.000000*%
%ADD16FreePoly0,180.000000*%
%ADD17C,2.051600*%
%ADD18FreePoly1,270.000000*%
%ADD19C,3.200000*%
%ADD20FreePoly2,90.000000*%
%ADD21FreePoly1,180.000000*%
%ADD22RoundRect,0.109220X0.525780X0.741680X-0.525780X0.741680X-0.525780X-0.741680X0.525780X-0.741680X0*%
%ADD23C,1.219200*%
%ADD24C,0.605000*%
%ADD25C,0.600000*%
G04 APERTURE END LIST*
G36*
X125717300Y-91948000D02*
G01*
X125564900Y-91948000D01*
X125564900Y-90119200D01*
X125717300Y-90119200D01*
X125717300Y-91948000D01*
G37*
D10*
X180378100Y-101193600D03*
D11*
X120708800Y-90759800D03*
X120708800Y-96539800D03*
D12*
X121238799Y-89329799D03*
D13*
X117058799Y-89329799D03*
D12*
X121238799Y-97969799D03*
D13*
X117058799Y-97969799D03*
D10*
X140119100Y-101828600D03*
X170853100Y-96621600D03*
X165608000Y-99237800D03*
D14*
X177711099Y-80873599D03*
X175171099Y-80873599D03*
X172631099Y-80873599D03*
X170091099Y-80873599D03*
X167551099Y-80873599D03*
X165011099Y-80873599D03*
X162471099Y-80873599D03*
X159931099Y-80873599D03*
X156121099Y-80873599D03*
X153581099Y-80873599D03*
X151041099Y-80873599D03*
X148501099Y-80873599D03*
X145961099Y-80873599D03*
X143421099Y-80873599D03*
X140881099Y-80873599D03*
X138341099Y-80873599D03*
X135801099Y-80873599D03*
X133261099Y-80873599D03*
D15*
X125895100Y-123367800D03*
D16*
X122897900Y-128371600D03*
D15*
X119900700Y-123367800D03*
D17*
X123659900Y-128371600D03*
X122135900Y-128371600D03*
X119900700Y-124129800D03*
X119900700Y-122605800D03*
X125895100Y-124129800D03*
X125895100Y-122605800D03*
D10*
X133134100Y-110591600D03*
X132499100Y-84175600D03*
D18*
X177838100Y-101193600D03*
X180378100Y-101193600D03*
X177838100Y-103733600D03*
X180378100Y-103733600D03*
X177838100Y-106273600D03*
X180378100Y-106273600D03*
D19*
X180251100Y-124053600D03*
X180251100Y-96113600D03*
D10*
X135039100Y-84175600D03*
X139738100Y-88493600D03*
D14*
X142151099Y-129133599D03*
X144691099Y-129133599D03*
X147231099Y-129133599D03*
X149771099Y-129133599D03*
X152311099Y-129133599D03*
X154851099Y-129133599D03*
X157391099Y-129133599D03*
X159931099Y-129133599D03*
X165011099Y-129133599D03*
X167551099Y-129133599D03*
X170091099Y-129133599D03*
X172631099Y-129133599D03*
X175171099Y-129133599D03*
X177711099Y-129133599D03*
D19*
X129451100Y-80873600D03*
D10*
X129197100Y-89763600D03*
X166662100Y-97510600D03*
D20*
X135039100Y-91795600D03*
X132499100Y-91795600D03*
X135039100Y-89255600D03*
X132499100Y-89255600D03*
D10*
X114211100Y-131673600D03*
X132499100Y-86715600D03*
X129959100Y-84175600D03*
X145580100Y-95986600D03*
D19*
X128181100Y-129133600D03*
D10*
X145580100Y-92938600D03*
D21*
X135039100Y-84175600D03*
X135039100Y-86715600D03*
X132499100Y-84175600D03*
X132499100Y-86715600D03*
X129959100Y-84175600D03*
X129959100Y-86715600D03*
D22*
X126403100Y-91033600D03*
X124879100Y-91033600D03*
D23*
X123101100Y-118338600D03*
X116751100Y-110083600D03*
X121196100Y-107543600D03*
X121196100Y-102844600D03*
X156514800Y-121666500D03*
X139103100Y-103987600D03*
X127076200Y-110159800D03*
X139230100Y-91033600D03*
X119291100Y-117068600D03*
X123101100Y-110083600D03*
X128816100Y-100304600D03*
X121831100Y-111988600D03*
X131102100Y-119989600D03*
X121831100Y-116433600D03*
X116751100Y-118338600D03*
X116751100Y-114274600D03*
X136563100Y-113258600D03*
X161328100Y-110591600D03*
X119291100Y-111353600D03*
X157899100Y-80873600D03*
X126568200Y-107416600D03*
X144614900Y-94005400D03*
D24*
X176276000Y-111150400D03*
D23*
X178828700Y-84277200D03*
X152338077Y-115724887D03*
X181394100Y-113969800D03*
D24*
X120269000Y-94157800D03*
X118516400Y-96799400D03*
D23*
X135801100Y-128905000D03*
X168821100Y-82524600D03*
D24*
X163169600Y-115849400D03*
X152146000Y-120751600D03*
X162407600Y-101955600D03*
D23*
X181368700Y-120980200D03*
X137388600Y-105410000D03*
X141389100Y-117449600D03*
D24*
X117322600Y-93751400D03*
D23*
X144183100Y-108305600D03*
X144741900Y-97358200D03*
X158292800Y-107213400D03*
D24*
X166065200Y-127025400D03*
X157327600Y-99644200D03*
D23*
X162471100Y-129133600D03*
X124625100Y-81762600D03*
X144183100Y-100177600D03*
X136182100Y-120116600D03*
D24*
X127228600Y-102184200D03*
D23*
X133134100Y-98018600D03*
D24*
X148818600Y-120345200D03*
X166319200Y-103378000D03*
D23*
X130873500Y-124790200D03*
X173647100Y-103733600D03*
X178828700Y-91135200D03*
D24*
X134213600Y-113690400D03*
D23*
X128308100Y-114528600D03*
X169367200Y-119684800D03*
D24*
X117906800Y-100025200D03*
D23*
X125641100Y-118973600D03*
X137325100Y-109956600D03*
X143383000Y-125628400D03*
X139738100Y-112369600D03*
X144221200Y-120015000D03*
X147269200Y-116890800D03*
X139484100Y-82524600D03*
X173647100Y-106908600D03*
X144437100Y-102336600D03*
X123101100Y-84012600D03*
X173774100Y-110845600D03*
X139357100Y-94081600D03*
X140119100Y-101828600D03*
D25*
X123621800Y-97053400D03*
X118656100Y-91516200D03*
X119075200Y-95007300D03*
X124244100Y-90398600D03*
D23*
X129197100Y-89763600D03*
X136817100Y-85064600D03*
X140042900Y-107137200D03*
D25*
X116687600Y-90862200D03*
X119964200Y-91643200D03*
X116116100Y-96786700D03*
D23*
X144348200Y-118313200D03*
X144119600Y-111760000D03*
D24*
X157886400Y-113258600D03*
X160096200Y-113919000D03*
D23*
X144957800Y-115087400D03*
X141135100Y-110210600D03*
X145389600Y-113360200D03*
X136436100Y-90652600D03*
X162153600Y-105486200D03*
X146088100Y-101574600D03*
X171742100Y-114401600D03*
X173691550Y-114204750D03*
X147104100Y-100431600D03*
X164719000Y-105587800D03*
D25*
X154533600Y-123850400D03*
D23*
X149047200Y-113055400D03*
X147929100Y-108102400D03*
X153568400Y-103860600D03*
X150772099Y-112228037D03*
X151911611Y-110265907D03*
X153084210Y-111156894D03*
X166065200Y-110261400D03*
X167678100Y-110591600D03*
X168821100Y-111988600D03*
X170548300Y-100355400D03*
X169964100Y-110591600D03*
X175425100Y-98780600D03*
X171107100Y-111988600D03*
D24*
X123113800Y-87020400D03*
X123545600Y-91617800D03*
X120472200Y-92786200D03*
X124510800Y-94462600D03*
D25*
X123393200Y-99949000D03*
X125044200Y-96824800D03*
X124358400Y-92608400D03*
D23*
X139738100Y-88493600D03*
X170853100Y-96621600D03*
D24*
X126136400Y-105740200D03*
D23*
X145072100Y-90525600D03*
X133134100Y-110591600D03*
X145580100Y-95986600D03*
X145732500Y-92938600D03*
X165608000Y-99237800D03*
X166662100Y-97510600D03*
X142024100Y-123672600D03*
X158648400Y-125704600D03*
D24*
X132486400Y-107340400D03*
X129768600Y-103225600D03*
X127101600Y-104749600D03*
M02*
