M48
; DRILL file {KiCad (7.0.0-0)} date 
; FORMAT={-:-/ absolute / metric / decimal}
; #@! TF.CreationDate,2023-03-10T16:25:51+09:00
; #@! TF.GenerationSoftware,Kicad,Pcbnew,(7.0.0-0)
; #@! TF.FileFunction,MixedPlating,1,2
FMAT,2
METRIC
; #@! TA.AperFunction,Plated,PTH,ViaDrill
T1C0.300
; #@! TA.AperFunction,Plated,PTH,ComponentDrill
T2C0.600
; #@! TA.AperFunction,Plated,PTH,ViaDrill
T3C0.610
; #@! TA.AperFunction,Plated,PTH,ComponentDrill
T4C0.950
; #@! TA.AperFunction,Plated,PTH,ComponentDrill
T5C1.016
; #@! TA.AperFunction,Plated,PTH,ComponentDrill
T6C1.300
; #@! TA.AperFunction,NonPlated,NPTH,ComponentDrill
T7C0.650
; #@! TA.AperFunction,NonPlated,NPTH,ComponentDrill
T8C3.200
%
G90
G05
T1
X116.116Y-96.787
X116.688Y-90.862
X117.323Y-93.751
X117.907Y-100.025
X118.516Y-96.799
X118.656Y-91.516
X119.075Y-95.007
X119.964Y-91.643
X120.269Y-94.158
X120.472Y-92.786
X123.114Y-87.02
X123.393Y-99.949
X123.546Y-91.618
X123.622Y-97.053
X124.244Y-90.399
X124.358Y-92.608
X124.511Y-94.463
X125.044Y-96.825
X126.136Y-105.74
X127.102Y-104.75
X127.229Y-102.184
X129.769Y-103.226
X132.486Y-107.34
X134.214Y-113.69
X148.819Y-120.345
X152.146Y-120.752
X154.534Y-123.85
X157.328Y-99.644
X157.886Y-113.259
X160.096Y-113.919
X162.408Y-101.956
X163.17Y-115.849
X166.065Y-127.025
X166.319Y-103.378
X176.276Y-111.15
T3
X116.751Y-110.084
X116.751Y-114.275
X116.751Y-118.339
X119.291Y-111.354
X119.291Y-117.069
X121.196Y-102.845
X121.196Y-107.544
X121.831Y-111.989
X121.831Y-116.434
X123.101Y-84.013
X123.101Y-110.084
X123.101Y-118.339
X124.625Y-81.763
X125.641Y-118.974
X126.568Y-107.417
X127.076Y-110.16
X128.308Y-114.529
X128.816Y-100.305
X129.197Y-89.764
X130.874Y-124.79
X131.102Y-119.99
X133.134Y-98.019
X133.134Y-110.592
X135.801Y-128.905
X136.182Y-120.117
X136.436Y-90.653
X136.563Y-113.259
X136.817Y-85.065
X137.325Y-109.957
X137.389Y-105.41
X139.103Y-103.988
X139.23Y-91.034
X139.357Y-94.082
X139.484Y-82.525
X139.738Y-88.494
X139.738Y-112.37
X140.043Y-107.137
X140.119Y-101.829
X141.135Y-110.211
X141.389Y-117.45
X142.024Y-123.673
X143.383Y-125.628
X144.12Y-111.76
X144.183Y-100.178
X144.183Y-108.306
X144.221Y-120.015
X144.348Y-118.313
X144.437Y-102.337
X144.615Y-94.005
X144.742Y-97.358
X144.958Y-115.087
X145.072Y-90.526
X145.39Y-113.36
X145.58Y-95.987
X145.732Y-92.939
X146.088Y-101.575
X147.104Y-100.432
X147.269Y-116.891
X147.929Y-108.102
X149.047Y-113.055
X150.772Y-112.228
X151.912Y-110.266
X152.338Y-115.725
X153.084Y-111.157
X153.568Y-103.861
X156.515Y-121.666
X157.899Y-80.874
X158.293Y-107.213
X158.648Y-125.705
X161.328Y-110.592
X162.154Y-105.486
X162.471Y-129.134
X164.719Y-105.588
X165.608Y-99.238
X166.065Y-110.261
X166.662Y-97.511
X167.678Y-110.592
X168.821Y-82.525
X168.821Y-111.989
X169.367Y-119.685
X169.964Y-110.592
X170.548Y-100.355
X170.853Y-96.622
X171.107Y-111.989
X171.742Y-114.402
X173.647Y-103.734
X173.647Y-106.909
X173.692Y-114.205
X173.774Y-110.846
X175.425Y-98.781
X178.829Y-84.277
X178.829Y-91.135
X181.369Y-120.98
X181.394Y-113.97
T4
X129.959Y-84.176
X129.959Y-86.716
X132.499Y-84.176
X132.499Y-86.716
X132.499Y-89.256
X132.499Y-91.796
X135.039Y-84.176
X135.039Y-86.716
X135.039Y-89.256
X135.039Y-91.796
X177.838Y-101.194
X177.838Y-103.734
X177.838Y-106.274
X180.378Y-101.194
X180.378Y-103.734
X180.378Y-106.274
T5
X133.261Y-80.874
X135.801Y-80.874
X138.341Y-80.874
X140.881Y-80.874
X142.151Y-129.134
X143.421Y-80.874
X144.691Y-129.134
X145.961Y-80.874
X147.231Y-129.134
X148.501Y-80.874
X149.771Y-129.134
X151.041Y-80.874
X152.311Y-129.134
X153.581Y-80.874
X154.851Y-129.134
X156.121Y-80.874
X157.391Y-129.134
X159.931Y-80.874
X159.931Y-129.134
X162.471Y-80.874
X165.011Y-80.874
X165.011Y-129.134
X167.551Y-80.874
X167.551Y-129.134
X170.091Y-80.874
X170.091Y-129.134
X172.631Y-80.874
X172.631Y-129.134
X175.171Y-80.874
X175.171Y-129.134
X177.711Y-80.874
X177.711Y-129.134
T6
X119.901Y-122.606
X119.901Y-123.368
X119.901Y-124.13
X122.136Y-128.372
X122.898Y-128.372
X123.66Y-128.372
X125.895Y-122.606
X125.895Y-123.368
X125.895Y-124.13
T7
X120.709Y-90.76
X120.709Y-96.54
T8
X128.181Y-129.134
X129.451Y-80.874
X180.251Y-96.114
X180.251Y-124.054
T2
G00X117.359Y-89.33
M15
G01X116.759Y-89.33
M16
G05
G00X117.359Y-97.97
M15
G01X116.759Y-97.97
M16
G05
G00X121.789Y-89.33
M15
G01X120.689Y-89.33
M16
G05
G00X121.789Y-97.97
M15
G01X120.689Y-97.97
M16
G05
T0
M30
